<svg width="40" height="34" xmlns="http://www.w3.org/2000/svg" xmlns:xlink="http://www.w3.org/1999/xlink" xml:space="preserve" overflow="hidden"><defs><clipPath id="clip0"><rect x="460" y="342" width="40" height="34"/></clipPath></defs><g clip-path="url(#clip0)" transform="translate(-460 -342)"><path d="M39.5201 9.21749C39.2608 7.48736 37.1799 8.56422 36.5588 6.99339 36.1426 5.94123 36.5958 2.90455 36.4439 1.54983 36.3118 0.369243 35.6289 0.0605114 34.5285 0.00864449 30.3829-0.188944 32.7725 3.29972 31.7351 5.61027 30.4051 8.57286 26.0285 7.87389 25.7013 4.63591 25.4592 2.23275 26.7386-0.161775 23.1709 0.00864449 21.2803 0.0987941 21.0814 1.2127 21.2543 2.90825 21.3704 4.03944 22.3571 3.91472 22.4893 3.27873 22.6053 2.72548 22.4053 1.84004 22.4893 1.2411L24.4651 1.2411C24.8764 3.11819 24.0761 5.10519 25.2752 6.79086 27.1116 9.37062 31.0152 9.25207 32.5922 6.46608 32.7811 6.13018 33.2331 4.96441 33.2331 4.63715L33.2331 1.2411 35.209 1.2411 35.209 6.48954C35.209 6.57104 35.43 7.31324 35.4869 7.44661 35.7857 8.15546 36.5674 8.85936 37.3047 9.08782 37.6467 9.19403 38.1864 9.03719 38.3593 9.39162 38.4655 9.61143 38.4717 11.5564 38.3593 11.7404L28.8491 16.2986 19.339 11.7404C19.2266 11.5564 19.2327 9.61143 19.3402 9.39162 19.5155 9.03102 19.9947 9.20267 20.2985 9.11499 21.5655 8.75316 22.3756 7.67013 22.488 6.36605 22.5386 5.76217 22.4633 4.41239 21.5544 5.06073 20.9641 5.48184 21.5964 6.72541 20.8097 7.52688 19.9996 8.35304 18.5313 7.68124 18.1954 9.11129L18.1695 21.7779 15.2439 23.5686C15.0229 23.6044 14.561 23.2228 14.4005 23.2228L10.387 23.2228 10.387 13.2199 14.277 13.2199C14.8945 13.2199 15.9602 12.2962 16.259 11.7442 17.4236 9.60155 15.5527 7.25272 13.2273 7.66396 13.4533 5.87208 12.1863 4.53836 10.387 4.70013 10.6488 2.47726 9.55957 2.15865 7.60221 2.34636 6.09436 2.49208 6.28207 3.48373 6.31294 4.70013 4.40375 4.49143 3.22563 5.81403 3.34912 7.66396 2.76006 7.54787 1.14972 7.69606 1.73507 8.59632 2.07221 9.11499 2.45997 8.77662 2.91072 8.76921 6.64514 8.70253 10.3907 8.80626 14.1251 8.80256 15.8663 9.20391 15.8725 11.5947 14.156 11.9887L2.43034 11.9776C1.74495 11.8726 1.31273 11.2699 1.17442 10.629 1.06574 10.1252 1.42387 9.33358 0.448278 9.51264-0.326021 9.65589 0.083975 11.2366 0.334665 11.7256 0.647102 12.3357 1.74495 13.2199 2.42169 13.2199L6.31171 13.2199 6.31171 23.0376C6.31171 23.0511 6.14006 23.2228 6.12647 23.2228L2.17471 23.2228C1.59182 23.2228 0.512495 24.2354 0.274154 24.78-0.687854 26.9708 1.09168 28.9998 3.34912 28.78 3.2281 29.8358 3.85668 31.2807 4.94959 31.5635 5.31265 31.6573 6.01533 31.5487 6.19563 31.6746 6.54882 31.9204 5.82638 33.6443 7.14035 33.9407 7.5701 34.0383 9.47312 34.0259 9.81767 33.8296 10.4845 33.4505 10.408 32.4045 10.3882 31.7438 11.1452 32.5094 11.9417 33.0553 13.0421 33.2269 20.4763 33.1281 27.9662 33.4233 35.3683 33.0763 37.396 32.0809 36.4983 29.495 36.6921 27.6698 38.2704 27.634 39.3966 26.7497 39.5362 25.1419 39.9746 20.0688 39.2077 14.3585 39.5201 9.21749ZM7.42314 3.58746 9.15204 3.58746 9.15204 4.6989 7.42314 4.6989 7.42314 3.58746ZM11.9306 7.66272 4.58281 7.66272C4.53465 6.70565 4.52354 6.02891 5.62633 5.92888 7.41326 5.76587 9.47189 6.03879 11.2872 5.96099 12.0887 6.14006 12.2468 7.66272 11.9306 7.66272ZM22.3645 20.6294C22.383 21.0345 22.4114 21.4729 22.0397 21.7236 20.0441 22.7078 18.0102 24.4355 16.0281 25.3444 15.5416 25.5667 15.0056 25.7742 14.8339 25.0777L22.3645 20.6294ZM23.1326 22.4016C23.1018 22.0867 23.8822 21.0703 23.6007 20.506 24.9579 20.217 24.8974 21.2728 25.5259 22.1015 27.3968 24.5676 31.3214 24.6269 33.1096 22.0496 33.3776 21.6643 33.5418 21.0604 33.7925 20.7566 34.3211 20.1194 35.5795 20.6183 35.5795 21.4322L35.5795 28.5947C35.5795 28.6083 35.4078 28.78 35.3942 28.78L27.6142 28.78C27.2783 28.6861 26.0631 26.4472 25.6445 26.0582 25.0937 25.5469 24.4281 25.8692 24.6146 26.588 24.6763 26.8251 26.1767 28.7009 26.0705 28.7787 25.6482 28.7281 24.9838 28.9121 24.6417 28.6651L21.1333 23.655C21.1345 23.5908 21.9977 23.0647 22.1694 23.0894 22.3238 23.1117 23.6254 25.9125 24.2811 24.8294 24.7455 24.0638 23.1919 23.0215 23.1326 22.4016ZM19.3402 25.0727C19.0685 24.7084 19.9861 24.1539 20.2071 24.3244L23.2302 28.78C22.7782 28.7355 22.2225 28.9282 21.8619 28.6046L19.3402 25.0727ZM20.5134 28.7787C20.091 28.7281 19.4266 28.9121 19.0846 28.6651 18.9697 28.5824 17.5804 26.5991 17.4446 26.3546 17.063 25.6667 17.7558 25.6148 18.2905 25.4988L20.5134 28.7787ZM7.42314 13.2199 9.15204 13.2199 9.15204 23.2228 7.42314 23.2228 7.42314 13.2199ZM9.15204 32.8552 7.42314 32.8552 7.42314 31.6203 9.15204 31.6203 9.15204 32.8552ZM10.2116 27.0622C9.54969 28.1242 9.36692 29.311 9.7695 30.5089L5.38552 30.5089C4.83721 30.5089 4.38522 29.2665 4.58281 28.78L7.97886 28.78C8.37774 28.78 8.65313 27.8649 8.07766 27.6945 6.50683 27.4166 2.87614 28.1761 1.6795 27.1758 0.963243 26.5769 0.997821 25.458 1.6758 24.8233 1.8314 24.6788 2.38217 24.3342 2.54518 24.3342L13.7213 24.3342C12.5913 25.3432 11.0501 25.7173 10.2116 27.0622ZM11.4996 27.2375C11.6886 27.0338 13.5101 25.8495 13.6805 25.8334 13.9028 25.8124 14.1856 26.2768 14.419 26.4151 15.0093 26.7658 15.5453 26.6843 16.1887 26.6151L17.673 28.78 10.7574 28.78C10.8599 28.2749 11.1489 27.6142 11.4996 27.2375ZM34.5187 32.1032 13.6546 32.1204C12.369 32.0933 11.018 31.2511 10.8809 29.8914L35.3942 29.8914C35.6696 29.8914 35.8968 31.9105 34.5187 32.1032ZM38.4198 25.2604C38.4198 25.9557 37.3565 26.6188 36.6909 26.4336L36.6909 21.0617C36.6909 20.9616 36.3044 20.2022 36.1982 20.0725 35.6301 19.3772 34.5113 19.1426 33.6777 19.4069 32.6626 19.7304 32.6934 20.6332 32.176 21.363 30.7719 23.3426 27.8229 23.2895 26.4126 21.3371 25.9248 20.6616 25.8742 19.8601 25.0443 19.4958 24.4713 19.2439 23.6674 19.2204 23.0474 19.2735 21.5371 19.4044 20.6418 20.5875 19.2784 20.9999L19.2784 13.0964 28.8491 17.5495 38.4198 13.0964 38.4198 25.2604Z" fill="#002968" transform="matrix(1.00788 0 0 1 460.006 342)"/></g></svg>