<svg width="33" height="27" xmlns="http://www.w3.org/2000/svg" xmlns:xlink="http://www.w3.org/1999/xlink" xml:space="preserve" overflow="hidden"><defs><clipPath id="clip0"><rect x="467" y="291" width="33" height="27"/></clipPath></defs><g clip-path="url(#clip0)" transform="translate(-467 -291)"><path d="M29.4055 7.78855C28.5456 0.683586 20.0519-2.49926 14.7069 2.33636 12.8623 0.54027 10.1363-0.285601 7.59162 0.0876392 2.02601 0.904231-1.69711 7.09569 0.826902 12.2922 0.826902 12.3613-0.0443351 12.2994 0.0020621 13.0077 0.061863 13.9254 1.13415 13.4057 1.54657 13.6346 4.32422 17.9392 8.13704 21.7098 12.0623 24.9762 12.5046 25.3442 14.4533 27.0362 14.877 26.9702 15.0946 26.9362 16.9391 25.4009 17.268 25.1277 18.297 24.273 20.0374 22.8852 20.8839 21.9387 21.4737 21.2798 20.9056 20.5499 20.1075 20.853 19.026 21.8294 17.9733 22.8512 16.8556 23.7874 16.5669 24.0286 14.8894 25.4484 14.7121 25.4174 10.893 22.4027 7.28127 19.0806 4.23246 15.2791L3.09418 13.582 9.12582 13.582C9.22274 13.582 9.41658 13.2108 9.46504 13.0964 9.90839 12.0499 10.0806 10.6641 10.4682 9.56196 10.5033 9.46298 10.4806 9.32481 10.6198 9.35575L13.6325 19.0765C13.8388 19.7467 14.576 19.9209 14.9018 19.2549L16.6112 13.6954C16.7308 13.5923 19.1847 13.7676 19.6394 13.682 20.255 13.5666 20.4292 12.5798 19.6353 12.4551 18.9373 12.3448 16.9855 12.3798 16.2359 12.4437 16.0648 12.4582 15.8967 12.4602 15.7421 12.5427L14.2306 16.7772 11.2168 6.95443C11.0209 6.29765 10.2321 6.06567 9.95066 6.77709L8.33913 12.3314 2.28584 12.3283C-1.53214 5.48519 6.76781-1.93219 13.1892 2.71372 13.613 3.01995 14.3656 3.92521 14.7966 3.90046 15.1348 3.8819 15.807 3.10655 16.139 2.86116 20.7385-0.544394 26.8609 1.92497 28.0456 7.39572L26.4475 7.39572C25.3865 7.39572 23.5554 8.68659 22.8924 9.51143 19.3147 13.9635 23.942 20.3395 29.2818 18.3754 34.1772 16.5741 34.1989 9.69599 29.4055 7.78855ZM27.8899 17.3959C21.7655 18.0124 21.2912 8.92477 27.0991 8.66082 32.8193 8.40099 33.1885 16.8628 27.8899 17.3959Z" fill="#002968" transform="matrix(1.00069 0 0 1 467 291.014)"/><path d="M22.2336 18.9693C21.45 19.0548 21.4716 20.3375 22.316 20.2828 23.1636 20.2271 23.077 18.8775 22.2336 18.9693Z" fill="#002968" transform="matrix(1.00069 0 0 1 467 291.014)"/><path d="M29.953 12.4479 28.0971 12.4479C28.0858 12.4479 27.9425 12.3045 27.9425 12.2932L27.9425 10.4373C27.9425 9.98572 26.7052 9.98572 26.7052 10.4373L26.7052 12.2932C26.7052 12.3045 26.5619 12.4479 26.5506 12.4479L24.6947 12.4479C24.242 12.4479 24.2255 13.6851 24.7978 13.6851L26.7052 13.6851 26.7052 15.6957C26.7052 16.1163 27.9425 16.1163 27.9425 15.6957L27.9425 13.6851 29.8499 13.6851C30.4222 13.6851 30.4057 12.4479 29.953 12.4479Z" fill="#002968" transform="matrix(1.00069 0 0 1 467 291.014)"/></g></svg>