<svg width="36" height="37" xmlns="http://www.w3.org/2000/svg" xmlns:xlink="http://www.w3.org/1999/xlink" xml:space="preserve" overflow="hidden"><g transform="translate(-462 -230)"><path d="M15.2855 31.108C15.1224 30.9475 15.3722 27.2229 15.2751 26.5241 15.0266 24.7252 12.9844 22.727 11.2748 22.2416 10.7196 22.0838 9.96125 22.1148 9.54452 21.9026 8.77061 21.5091 7.5722 19.9121 6.80605 19.3336 6.3971 19.023 5.71765 18.8703 5.51835 18.6801 5.37729 18.5442 4.82597 17.1465 4.80914 16.9213 4.76644 16.3376 5.20387 15.4162 5.1961 14.7419 5.17928 13.3183 4.18794 11.4871 2.98048 10.7352 2.12633 10.2033 1.07157 9.89395 0.694971 11.1441 0.134594 13-0.0478844 17.2668 0.0103534 19.2702 0.0595319 20.9591 0.146242 23.7584 1.18287 25.0862 2.15221 26.3274 6.44757 29.6676 6.8177 30.7107 6.86559 30.844 6.89406 30.9644 6.87464 31.1067 6.26638 31.0834 5.6413 30.9799 5.47823 31.7176 5.33846 32.3556 5.37729 34.843 5.44458 35.5781 5.51318 36.321 5.67883 36.4814 6.41521 36.5487 8.6839 36.7571 13.3481 36.7571 15.6168 36.5487 16.1487 36.4995 16.4787 36.4141 16.5732 35.8227 16.6767 35.1691 16.6793 32.4747 16.5732 31.8263 16.3985 30.7547 15.3981 31.2167 15.2855 31.108ZM2.34116 24.4456C1.55818 23.5889 1.54783 22.4604 1.44041 21.3344 1.20876 18.9027 1.3097 16.2716 1.58407 13.8464 1.6656 13.1268 1.78466 12.3969 1.95808 11.6954 2.15609 11.5518 3.19661 12.7372 3.33379 12.9702 4.44937 14.8455 3.39332 15.5107 3.50591 17.0624 3.54603 17.6137 4.21383 18.6917 4.16724 18.9894 4.16206 19.0295 3.7311 19.2702 3.58227 19.4669 2.95977 20.2887 3.20308 21.46 3.76863 22.2416 4.19182 22.8266 6.58863 25.5858 7.06877 25.9287 7.75468 26.4179 8.35 25.908 8.10281 25.1561L4.60337 21.1494C4.27336 20.1283 4.93597 19.7568 5.80048 20.2111 6.72711 20.6964 7.87763 22.4966 8.89744 23.066 9.5484 23.4297 10.5113 23.2951 11.3111 23.6303 12.2688 24.0302 13.9926 25.7152 13.9926 26.7713L13.9926 31.1067C13.2769 30.9463 8.36941 31.319 8.16882 31.1067 8.14164 31.0783 8.18176 30.5606 8.10929 30.3238 7.78315 29.2612 3.36485 25.5638 2.34116 24.4456ZM15.2868 35.2481 6.74523 35.2481 6.74523 32.4009 15.2868 32.4009 15.2868 35.2481Z" fill="#002968" transform="matrix(1 0 0 1.00606 462 230.036)"/><path d="M35.8628 15.125C35.7916 14.2695 35.4966 11.3926 35.1458 10.7947 34.6178 9.89007 33.7197 10.3055 33.0286 10.7352 31.8211 11.4858 30.8285 13.3183 30.813 14.7419 30.8052 15.4162 31.2426 16.3376 31.1999 16.9213 31.1831 17.1465 30.6318 18.5442 30.4894 18.6801 30.2901 18.8703 29.612 19.023 29.2017 19.3336 28.4369 19.9134 27.2384 21.5091 26.4645 21.9026 26.0012 22.1381 25.094 22.098 24.4404 22.3361 22.8978 22.8965 21.1067 24.6786 20.7792 26.3105 20.6188 27.1077 20.8944 30.9398 20.7223 31.108 20.611 31.218 19.6106 30.7547 19.4359 31.8263 19.3518 32.3362 19.3712 35.7839 19.5239 36.1229 19.5757 36.2381 19.6624 36.3287 19.7646 36.3999L30.1387 36.4465C30.4532 36.2899 30.5218 36.0272 30.5606 35.7036 30.6408 35.0268 30.6628 32.3168 30.5295 31.7176 30.3678 30.9799 29.7427 31.0834 29.1344 31.1067 29.0826 30.7638 29.2729 30.5722 29.4554 30.3276 30.8401 28.4666 34.9957 25.7424 35.5457 23.7351 36.1281 21.6088 36.0492 17.3743 35.8628 15.125ZM29.2638 32.4009 29.2638 35.2481 20.7223 35.2481 20.7223 32.4009 29.2638 32.4009ZM34.5686 21.3344C34.4612 22.4604 34.4509 23.5889 33.6679 24.4456 32.6442 25.5638 28.2259 29.2612 27.8985 30.3238 27.8273 30.558 27.8791 31.1067 27.8402 31.1067L22.0165 31.1067C22.1627 29.7802 21.8185 28.0447 22.0165 26.7713 22.2028 25.569 23.5876 24.0949 24.698 23.6303 25.4978 23.2951 26.4607 23.4297 27.1116 23.066 28.1301 22.4966 29.2819 20.6964 30.2086 20.2111 31.0731 19.7568 31.7357 20.1283 31.4057 21.1494L27.9062 25.1561C27.6591 25.908 28.2544 26.4179 28.939 25.9287 29.4204 25.5858 31.8159 22.8266 32.2404 22.2416 32.806 21.46 33.0493 20.2887 32.4268 19.4669 32.2767 19.2702 31.847 19.0295 31.8405 18.9894 31.7952 18.6917 32.463 17.6137 32.5031 17.0624 32.6157 15.5107 31.5597 14.8455 32.674 12.9702 32.8125 12.7372 33.853 11.5518 34.051 11.6954 34.2244 12.3969 34.3435 13.1268 34.4237 13.8464 34.6968 16.2574 34.799 18.9182 34.5686 21.3344Z" fill="#002968" transform="matrix(1 0 0 1.00606 462 230.036)"/><path d="M20.0843 21.3448C20.2383 20.9967 20.4156 19.7141 20.4842 19.6093 20.5295 19.5407 21.909 19.0088 22.0126 18.9933 22.7878 18.8807 23.6652 20.5295 24.8585 19.7775 25.1652 19.5834 26.7104 17.9838 26.7777 17.6849 27.0353 16.5512 25.8213 15.785 25.8149 15.2544 25.8149 15.1742 26.3817 13.902 26.427 13.8399 26.8127 13.3093 28.719 13.6639 28.9778 12.5082 29.0736 12.0798 29.0619 9.88877 28.9079 9.5277 28.5572 8.70849 27.012 8.9065 26.5487 8.52083 26.4865 8.47036 25.9404 7.19042 25.921 7.06877 25.8356 6.49416 27.0793 5.47953 26.9123 4.67067 26.8541 4.39242 24.8831 2.34633 24.6423 2.27386 23.6212 1.96326 22.8305 3.22249 22.1886 3.25614 22.1045 3.26131 20.6783 2.66858 20.6226 2.60517 20.4479 2.40069 20.3405 0.940863 20.0623 0.512492 19.6391-0.138476 16.92-0.103534 16.3325 0.251069 15.6103 0.687206 15.8277 1.98267 15.477 2.50164 15.3929 2.62717 14.2113 3.1086 14.0211 3.1319 13.2329 3.22896 12.3179 1.80796 11.3719 2.27516 11.1545 2.38257 9.27922 4.25006 9.23133 4.40795 8.89873 5.51447 10.1605 6.29097 10.1942 6.84229 10.2007 6.92771 9.62347 8.36941 9.56264 8.42895 9.33616 8.65154 7.81292 8.73178 7.35478 9.09933 6.841 9.51087 6.86041 12.4085 7.25643 12.8951 7.64727 13.3766 9.10192 13.33 9.50958 13.6238 9.5717 13.6678 10.0738 14.9412 10.0907 15.0279 10.2136 15.6763 8.91167 16.6547 9.09674 17.5529 9.17957 17.9541 11.1014 19.8423 11.5298 19.9277 12.3762 20.0946 13.1087 19.0593 13.6962 18.9635 13.8929 18.9312 15.1444 19.4113 15.2829 19.5278 15.763 19.9316 15.4718 21.7809 16.5434 22.0203 16.92 22.1045 19.2534 22.1058 19.5549 21.9802 19.7335 21.9052 19.9988 21.5363 20.0843 21.3448ZM18.825 20.7598C18.5157 20.6925 17.0999 20.8401 16.9821 20.7404 16.8954 20.6666 16.6871 18.869 16.3868 18.5533 15.4822 18.376 14.2255 17.3212 13.3805 17.6176 12.9068 17.7819 11.9983 18.706 11.5958 18.4342 11.4741 18.354 10.5307 17.373 10.5113 17.2979 10.4168 16.92 11.5363 15.7863 11.544 15.2557 11.544 15.1263 10.7662 13.1177 10.6562 12.8951 10.2395 12.0539 8.4173 12.3943 8.29694 11.7601 8.20247 11.2645 8.36553 10.5423 8.29694 10.013 8.78226 9.9496 10.0881 9.78394 10.4375 9.49923 10.5436 9.41252 11.544 7.19431 11.5764 7.00536 11.6838 6.39451 10.4375 5.09386 10.5566 4.83373L11.874 3.5538C12.4862 3.73628 13.1915 4.56066 13.7998 4.58655 14.3239 4.60855 14.7354 4.219 15.1962 4.03394 15.6711 3.8424 16.3558 3.88252 16.5913 3.35838 16.7375 3.03354 16.9731 1.38476 17.1827 1.33559 17.5852 1.41712 18.627 1.21005 18.9143 1.40029 19.2016 1.59183 19.2521 3.13319 19.6093 3.5525 19.9406 3.94076 21.5337 4.17241 22.0152 4.65255 22.8033 4.84926 23.7442 3.3972 24.4146 3.79063 24.5181 3.85146 25.4758 4.84279 25.49 4.91915 25.5496 5.22587 24.4663 6.36474 24.4663 6.97041 24.8235 7.5955 25.0875 8.87414 25.4046 9.40475 25.7204 9.93019 27.5426 9.97419 27.6966 10.1541 27.7587 10.2266 27.7587 11.997 27.6966 12.0695 27.5594 12.2273 25.7747 12.3826 25.4447 12.7295 25.3826 13.4503 24.5052 14.6254 24.4107 15.1755 24.3097 15.7578 25.5845 17.087 25.4486 17.3911 25.4111 17.4726 24.333 18.5157 24.2528 18.5364 23.7752 18.6594 22.7101 17.5516 22.2002 17.5179 21.7175 17.4869 20.3379 18.4691 19.6921 18.495 19.1835 18.6891 19.1085 20.6925 18.8237 20.7598Z" fill="#002968" transform="matrix(1 0 0 1.00606 462 230.036)"/><path d="M17.4584 5.9079C10.7157 6.64169 11.6281 17.0611 18.8315 16.2095 25.1289 15.4654 24.2774 5.16375 17.4584 5.9079ZM18.7047 14.9192C13.3429 15.666 12.4189 7.83492 17.5852 7.19819 22.6001 6.58087 23.4038 14.2644 18.7047 14.9192Z" fill="#002968" transform="matrix(1 0 0 1.00606 462 230.036)"/><path d="M14.487 5.96355C14.1272 4.74185 12.7437 6.33239 12.3852 6.78794 12.0332 7.23572 10.9487 8.85602 11.4366 9.33357 12.3451 10.224 12.9844 8.12999 13.4219 7.56444 13.7829 7.09465 14.6785 6.61452 14.487 5.96355Z" fill="#002968" transform="matrix(1 0 0 1.00606 462 230.036)"/><path d="M16.5499 4.34971C16.159 3.95629 14.9076 4.54125 14.7898 4.92562 14.2915 6.56793 17.6409 5.44717 16.5499 4.34971Z" fill="#002968" transform="matrix(1 0 0 1.00606 462 230.036)"/><path d="M17.5852 7.84527C13.449 8.39918 14.0612 14.8998 18.5753 14.2708 22.5975 13.7105 21.7537 7.28878 17.5852 7.84527ZM17.5593 12.9793C15.5495 12.6622 15.6245 9.43581 17.7146 9.13427 20.5178 8.72919 20.7922 13.4905 17.5593 12.9793Z" fill="#002968" transform="matrix(1 0 0 1.00606 462 230.036)"/></g></svg>