<svg width="34" height="33" xmlns="http://www.w3.org/2000/svg" xmlns:xlink="http://www.w3.org/1999/xlink" xml:space="preserve" overflow="hidden"><defs><clipPath id="clip0"><rect x="462" y="453" width="34" height="33"/></clipPath></defs><g clip-path="url(#clip0)" transform="translate(-462 -453)"><path d="M32.4181 16.7432C31.3323 15.1136 29.6873 13.6181 28.6108 11.9464L28.5862 2.64987C28.3895 0.895239 26.2825 0.953624 24.9458 1.05913 22.1269 1.2814 23.4585 3.46521 23.0099 5.06721 22.8337 5.69716 22.3154 5.10307 22.0798 4.85416 20.8701 3.57788 19.1134 0.700622 17.5022 0.21203 14.6014-0.665795 13.318 1.76999 11.7385 3.62807 11.4845 4.33279 12.2342 4.7927 12.8509 4.43112 13.6867 3.66904 14.7981 1.6522 15.9412 1.47807 17.0075 1.31623 17.4991 1.68497 18.1895 2.39174 19.9462 4.18939 21.454 6.49919 23.2055 8.33576 23.4473 8.67992 24.2872 8.52423 24.3855 8.18006L24.3855 2.7523C24.3855 2.73386 24.6232 2.49622 24.6416 2.49622L26.9975 2.49622C27.0088 2.49622 27.1511 2.6386 27.1511 2.64987L27.1511 12.1759C27.1511 12.7228 29.5019 15.2416 29.9577 15.9248 30.0929 16.1276 30.4586 16.5875 30.054 16.7186 29.4753 16.9071 27.7381 16.4595 27.3488 17.0095 27.0456 17.4377 27.0303 20.737 27.3816 21.1119 27.6858 21.4386 28.3444 21.3454 28.5319 20.9316 28.7716 20.4 28.3219 18.4456 28.789 18.2182 29.3063 17.9673 31.4645 18.3083 32.2183 18.1649 32.4785 18.1158 32.7899 17.7675 32.793 17.5032 32.7961 17.2185 32.5676 16.9696 32.4171 16.7422Z" fill="#002968" transform="matrix(1.03674 0 0 1 462 453.029)"/><path d="M19.726 31.3815 5.79549 31.3815C5.78422 31.3815 5.64185 31.2391 5.64185 31.2278L5.64185 17.5022C5.64185 17.4725 5.44006 16.9962 5.41138 16.9645 4.94225 16.4492 2.81785 16.9942 2.67957 16.5691 2.6386 16.4431 2.67445 16.3407 2.72669 16.2259 3.13026 15.3338 6.42339 13.0568 4.26314 12.6306L3.69772 12.8939C2.77381 14.1907 1.4668 15.3235 0.525466 16.5844 0.330849 16.8405-0.0040972 17.1857 0 17.5053 0.0030729 17.7696 0.313436 18.1168 0.573608 18.166 1.33159 18.3104 3.48774 17.9683 4.00297 18.2192 4.08901 18.2612 4.15968 18.3534 4.18632 18.4456L4.20475 31.3334C4.36147 32.2245 5.01088 32.7418 5.8928 32.8206 10.2266 33.2078 15.1289 32.5205 19.5221 32.8186 20.5475 32.6998 20.3897 31.5228 19.725 31.3825Z" fill="#002968" transform="matrix(1.03674 0 0 1 462 453.029)"/><path d="M30.3254 24.1622C30.0663 24.0455 28.8904 24.0485 28.4612 23.9778 25.754 23.5333 23.9154 21.7449 23.477 19.0264 23.396 18.5245 23.4493 17.5934 23.3407 17.2164 23.2762 16.9931 22.9044 16.778 22.6811 16.7647 21.7141 16.7084 21.9733 18.1977 21.8995 18.8051 21.5585 21.6383 19.6348 23.5415 16.8467 23.9963 16.1645 24.1069 14.6485 23.856 14.6506 24.7748 14.6526 25.7919 16.0119 25.4774 16.6408 25.5553 19.684 25.9343 21.5042 27.9552 21.9149 30.9339 21.9815 31.4163 21.8237 31.9899 22.0522 32.4355 22.3134 32.9415 23.141 32.9569 23.3172 32.4119 23.4462 32.0094 23.4083 31.0558 23.4934 30.5395 23.9707 27.6315 25.8943 25.966 28.7521 25.5553 29.1864 25.4928 30.1882 25.6382 30.5078 25.3146 30.7823 25.037 30.7157 24.3364 30.3254 24.1622ZM24.6447 25.7499C24.3681 25.9845 23.9502 26.3921 23.7197 26.6687 23.5302 26.8951 22.9955 27.8415 22.9331 27.8774 22.8132 27.946 22.5633 27.9163 22.4404 27.8466 22.3359 27.7872 21.3751 26.3245 20.9521 25.9558 20.6038 25.6516 19.1913 25.0032 19.6389 24.5084 19.7813 24.3507 20.4901 24.0117 20.7482 23.7996 21.5287 23.1584 21.7869 22.5479 22.3502 21.8176 22.5367 21.5759 22.7466 21.5789 22.9576 21.7992 23.3039 22.3666 23.7484 23.0427 24.2298 23.4975 24.5197 23.7709 25.8247 24.5218 25.8247 24.7748 25.6311 25.2531 25.0247 25.4293 24.6447 25.7499Z" fill="#002968" transform="matrix(1.03674 0 0 1 462 453.029)"/><path d="M1.48114 7.73244C3.86673 8.10017 5.91226 9.82304 6.24516 12.2896 6.31789 12.8283 6.06898 13.9233 6.9212 13.9776 7.91989 14.0421 7.60953 13.0844 7.70274 12.4954 8.12065 9.86914 9.83943 8.15036 12.4657 7.73244 13.0547 7.63923 14.0124 7.9496 13.9479 6.9509 13.8936 6.09869 12.7986 6.34759 12.2599 6.27486 9.78617 5.94197 8.07559 3.89644 7.70274 1.51084 7.61363 0.940308 7.86868-0.277585 6.7399 0.0573608 6.09459 0.248905 6.3015 1.30598 6.2298 1.80379 5.91841 3.97736 3.94663 5.94811 1.77409 6.2595 1.17282 6.34657-0.0133159 6.07615 0 7.05743 0.0112673 7.87585 0.994596 7.65767 1.48114 7.73244ZM4.22729 6.96832C4.25187 6.84745 5.77193 5.62341 6.05464 5.31612 6.35374 4.98937 6.80136 3.97326 7.25102 4.37171 7.41081 4.51307 7.63923 5.02932 7.84307 5.26286 8.0889 5.54556 8.43511 5.87641 8.71372 6.13351 8.94624 6.34861 9.71549 6.74707 9.72061 7.03797 9.72471 7.29712 8.89912 7.72015 8.66661 7.92809 8.44741 8.12373 8.18928 8.37058 7.99467 8.58774 7.72323 8.89298 7.292 9.76671 6.93656 9.74007 6.61698 9.71651 6.37627 9.05994 6.15195 8.79772 5.90304 8.50784 5.52098 8.1227 5.23315 7.87277 4.98937 7.66074 4.15866 7.30121 4.22729 6.96832Z" fill="#002968" transform="matrix(1.03674 0 0 1 462 453.029)"/><path d="M27.6346 28.3301C26.8275 28.5708 27.3007 30.6368 27.1081 31.2852 26.9135 31.5638 25.3607 31.066 25.124 31.8639 24.7983 32.963 26.2057 32.8821 26.9012 32.8186 27.5977 32.7551 28.3014 32.3618 28.5073 31.6591 28.6333 31.2278 28.664 29.2376 28.5657 28.79 28.4653 28.3352 28.0587 28.2031 27.6356 28.3291Z" fill="#002968" transform="matrix(1.03674 0 0 1 462 453.029)"/></g></svg>