<svg width="36" height="35" xmlns="http://www.w3.org/2000/svg" xmlns:xlink="http://www.w3.org/1999/xlink" xml:space="preserve" overflow="hidden"><defs><clipPath id="clip0"><rect x="464" y="172" width="36" height="35"/></clipPath></defs><g clip-path="url(#clip0)" transform="translate(-464 -172)"><path d="M35.5986 16.4822C35.4437 15.7174 34.4549 14.14 34.4203 13.5258 34.4069 13.266 34.7759 12.8792 34.8406 12.5057 35.0011 11.5883 34.6555 10.7979 33.903 10.265 33.7682 10.1702 33.3479 10.0409 33.3256 10.0064 33.174 9.76558 33.4047 6.72777 33.3011 6.07227 33.252 5.75901 33.0469 5.52714 32.7883 5.35992 27.6034 3.53277 22.4196 1.65547 17.1834 0.00334437 16.5-0.0780354 12.3419 1.29204 12.1178 1.59861 11.7321 2.12591 12.178 2.52946 12.8012 2.39569 14.2482 2.08578 15.9616 0.890719 17.5067 1.13263L32.0034 6.14362 32.0837 6.40336 27.1764 8.01758C27.1474 7.19933 26.784 6.85931 26.0426 6.64304 22.2223 5.52825 15.0764 5.69213 11.081 6.13581 10.3352 6.21831 7.63186 6.53714 7.16365 6.90056 6.75452 7.21716 6.71439 7.97634 6.65977 8.01535 6.49589 8.13129 3.34103 6.84371 2.84606 6.76344L1.64878 6.23503 10.3096 3.24627C10.8179 3.08463 10.8235 2.28867 10.2806 2.21844 9.96847 2.17719 9.16136 2.52166 8.80685 2.63537 6.17818 3.48038 3.58628 4.48481 0.981017 5.40005 0.433654 5.90951 0.433654 6.66868 0.981017 7.17926L6.65308 9.14352 6.67091 14.3072C3.24516 14.849 1.09361 17.9671 2.06236 21.3706 2.42021 22.628 3.24404 23.3738 4.1002 24.2924-1.86059 25.9602-1.13263 34.3802 5.04889 34.9933L32.2532 35C33.8774 34.9877 34.5017 32.8496 33.1416 31.9845 32.8752 31.815 32.3446 31.7838 32.2465 31.6523 31.9956 31.3178 31.8318 29.61 31.8607 29.144 31.873 28.9422 32.1439 27.4896 32.2063 27.4283 32.2309 27.4027 32.6968 27.3592 32.8886 27.2745 34.6812 26.4863 33.8573 23.8688 31.97 24.1809 32.2331 23.3471 31.8752 22.385 31.0481 22.0383 30.8285 21.9458 30.4862 21.9948 30.3513 21.8421 29.9411 21.3784 29.8196 18.5256 30.3513 17.9415 31.1718 18.568 34.2052 18.5869 34.9744 18.102 35.524 17.7542 35.7257 17.1098 35.5975 16.4822ZM33.4961 12.8881C32.2286 14.0085 30.9511 11.6574 32.3067 11.0855 33.4739 10.5928 34.3924 12.0955 33.4961 12.8881ZM7.77902 12.5882 20.4319 12.5882C21.1755 12.5882 20.967 11.4734 20.6549 11.4734L7.77902 11.4734 7.77902 7.85036C7.77902 7.63744 9.46681 7.40668 9.74551 7.36431 15.1032 6.55943 20.7385 6.78797 26.0616 7.68314L26.0616 11.4734 22.773 11.4734C22.2312 11.4734 22.3126 12.5882 22.8844 12.5882L26.0616 12.5882 26.0616 14.3719 7.77902 14.3719 7.77902 12.5882ZM32.2543 25.1798C32.9231 25.2222 33.1049 26.2333 32.3669 26.3069L5.5996 26.2946C2.75354 26.269 1.04567 29.5877 3.03892 31.7649 3.32988 32.0837 4.42572 32.766 4.82482 32.766L26.2288 32.766C26.5811 32.766 26.5811 31.7626 26.2288 31.7626L5.15926 31.7626C5.11021 31.7626 4.60632 31.5731 4.50264 31.5274 3.00436 30.8686 2.76468 28.7884 4.10689 27.8118 4.19385 27.7483 4.78357 27.415 4.82482 27.415L21.8254 27.415 21.8254 30.2577C21.8254 30.309 21.9937 30.6423 22.0517 30.7014 22.4686 31.1194 23.4463 30.3112 23.9992 30.3112 24.5522 30.3112 25.5298 31.1194 25.9457 30.7014 26.0036 30.6423 26.1731 30.309 26.1731 30.2577L26.1731 27.415 31.1896 27.415C30.8697 28.299 30.7738 29.3179 30.8563 30.2554 30.892 30.6557 31.135 31.2186 31.1473 31.5319 31.1506 31.6278 31.0982 31.7626 31.0224 31.7626L28.2354 31.7626C28.0236 31.7626 27.6502 32.5842 28.3714 32.7403 29.2978 32.9421 31.912 32.5252 32.5274 32.8206 32.9254 33.0123 32.9744 33.7871 32.4717 33.8808L4.93072 33.8852C-0.333323 33.1885-0.21404 25.813 5.04332 25.1809L32.2543 25.1809ZM25.0583 27.415 25.0583 29.5331C24.2267 29.1362 23.7707 29.1362 22.9402 29.5331L22.9402 27.415 25.0583 27.415ZM29.8876 16.4933 7.60622 16.4844C4.85492 16.3908 2.94305 19.3472 4.6576 21.6738 4.9664 22.0918 6.11129 22.9558 6.60849 22.9558L11.7365 22.9558C12.0888 22.9558 12.0888 21.9525 11.7365 21.9525L6.94292 21.9525C6.88272 21.9525 6.31418 21.7351 6.2105 21.6805 4.95636 21.0183 4.67321 19.1153 5.74564 18.16 5.85377 18.0641 6.6319 17.6048 6.71996 17.6048L9.11677 17.6048 9.11677 20.559C9.11677 20.7028 9.45566 21.0138 9.63403 21.0328 10.0231 21.0729 10.9038 20.4241 11.2906 20.4375 11.6485 20.4497 12.4924 21.0138 12.8703 21.0317 13.0107 21.0395 13.353 20.8644 13.353 20.7819L13.353 17.6048 29.2945 17.6048C28.8062 19.0295 28.872 20.5233 29.2945 21.9525L13.7432 21.9525C13.3898 21.9525 13.3898 22.9558 13.7432 22.9558L30.5765 22.9558C30.9912 22.9558 31.3301 24.0583 30.2443 24.1843 22.7886 23.8253 14.8992 24.6525 7.49474 24.1876 4.7557 24.0148 2.64986 22.2178 2.86947 19.3283 2.99656 17.6616 4.87833 15.3752 6.60849 15.3752L30.4093 15.3752 29.8876 16.4933ZM12.3497 17.6048 12.3497 19.7229C11.5838 19.2948 10.9974 19.2948 10.2316 19.7229L10.2316 17.6048 12.3497 17.6048ZM30.8552 14.3719 27.1764 14.3719 27.1764 9.13237 32.3044 7.46019 32.3044 9.85699C32.3044 9.97516 31.4371 10.3609 31.2398 10.576 30.6646 11.2048 30.5709 12.11 30.8307 12.8915 30.8998 13.1021 31.1785 13.3407 31.1685 13.5157 31.1662 13.5614 30.9009 14.3719 30.8552 14.3719ZM34.1505 17.2759C33.757 17.3239 31.3067 17.3116 31.1239 17.1689 31.0313 17.0976 30.9767 16.9928 30.9656 16.8768 30.9522 16.7308 31.9131 14.2716 32.0257 14.1411 32.1205 14.0308 33.2319 14.266 33.5229 14.0397 33.6734 14.8791 34.4482 15.946 34.5964 16.713 34.6656 17.0675 34.4783 17.2369 34.1505 17.2759Z" fill="#002968" transform="matrix(1.00929 0 0 1 464.016 172)"/></g></svg>