<svg width="33" height="30" xmlns="http://www.w3.org/2000/svg" xmlns:xlink="http://www.w3.org/1999/xlink" xml:space="preserve" overflow="hidden"><defs><clipPath id="clip0"><rect x="462" y="401" width="33" height="30"/></clipPath></defs><g clip-path="url(#clip0)" transform="translate(-462 -401)"><path d="M22.0852 26.201 20.4026 26.201 20.4026 24.4164C20.4026 24.3134 20.0456 23.9575 19.9437 23.9575L18.21 23.9575C18.1988 23.9575 18.0571 23.8147 18.0571 23.8045L18.0571 5.85654C18.0571 5.79332 18.6251 5.09376 18.723 4.78884 18.7862 4.59305 18.7352 4.2657 18.7842 4.18718 18.8709 4.04645 21.3234 3.71706 21.7201 3.50291 22.1392 3.27652 22.1851 2.48416 21.7588 2.35873 20.8992 2.10583 19.1595 2.99609 18.5364 2.85332 18.4762 2.83904 17.9531 2.1252 17.6828 1.94674 16.5284 1.18599 14.7744 1.63367 14.1636 2.88085 14.0269 3.15925 13.9311 3.85065 13.7037 3.95059L7.15165 5.35278C6.98849 5.36094 6.65706 4.95711 6.42048 4.84697 4.88878 4.13415 3.36626 5.62404 4.09744 7.17103 4.23817 7.4688 4.61548 7.70029 4.55532 7.94707 4.45742 8.35804 3.48864 9.77144 3.21738 10.2905 2.60347 11.4632 1.95694 12.7318 1.4909 13.9678 1.39403 14.2248 1.17172 15.1823 1.07994 15.2915 0.821935 15.5943-0.0407908 14.9815 0.00101977 16.3612 0.157045 21.5141 7.30054 23.5863 10.2283 19.239 10.7392 18.4793 11.556 16.5723 11.1706 15.6994 10.9585 15.217 10.316 15.5107 10.1508 15.2915 10.0713 15.1864 9.80612 14.0881 9.69598 13.8087 8.89546 11.7569 7.80838 9.83059 6.6744 7.94911 6.60404 7.69519 7.3862 7.07109 7.37192 6.64381L13.9413 5.19777C14.1361 5.09579 14.5654 5.65769 14.5899 5.75457L14.5899 23.9575 12.7033 23.9575C12.6778 23.9575 12.3464 24.2889 12.3464 24.3144L12.3464 26.201 10.6637 26.201C10.1763 26.201 10.0335 26.5416 9.99579 26.9607 9.9499 27.4706 9.91829 29.0594 10.0029 29.5122 10.059 29.811 10.3599 30.0149 10.6566 29.9802L22.3462 29.9293C22.5889 29.8416 22.7021 29.657 22.7409 29.4061 22.8143 28.9421 22.8143 27.3339 22.7531 26.8587 22.7134 26.5569 22.3605 26.201 22.0852 26.201ZM5.33544 6.03398C5.66177 5.69644 6.32564 6.21448 5.92283 6.6744 5.56999 7.07619 4.89388 6.49084 5.33544 6.03398ZM9.89892 16.6151C9.06678 21.5263 2.22004 21.4998 1.33284 16.6151L9.89892 16.6151ZM8.15001 13.4171C8.41311 14.0249 8.73842 14.7418 8.77717 15.3914L2.45459 15.3914C2.2027 15.1365 4.33301 10.9054 4.67973 10.3252L5.66585 8.76187C6.50308 10.2925 7.45656 11.81 8.15001 13.4171ZM15.4638 3.26327C16.4958 2.06198 18.2967 3.71095 17.2066 4.85309 16.1838 5.92385 14.496 4.39113 15.4638 3.26327ZM16.8334 6.51837 16.7885 23.8616C16.6631 24.0421 16.142 23.931 15.9156 23.9575L15.9156 6.41742 16.8334 6.51837ZM13.6721 25.2832 19.0769 25.2832 19.0769 26.201 13.6721 26.201 13.6721 25.2832ZM21.4223 28.6484 11.2246 28.6484 11.2246 27.5267 21.4223 27.5267 21.4223 28.6484Z" fill="#002968" transform="matrix(1.01063 0 0 1 462 401.008)"/><path d="M31.5211 10.6964C30.9031 8.03477 29.4336 5.61384 28.0651 3.28162 28.007 3.04911 28.4149 2.7646 28.5495 2.48008 29.299 0.894339 27.6419-0.599625 26.1082 0.242705 25.3546 0.656732 25.1068 1.67854 25.4494 2.44031 25.5952 2.76562 26.047 2.98691 25.9725 3.25817 25.8706 3.62325 25.0762 4.73887 24.8365 5.19165 24.191 6.40416 23.4741 7.76759 22.9754 9.04129 22.8612 9.33294 22.5787 10.4914 22.4951 10.6005 22.3371 10.8116 21.6028 10.524 21.4437 11.0788 21.0827 12.3392 22.1872 14.5317 23.1019 15.3934 25.9093 18.0397 30.4983 17.1862 32.1146 13.6935 32.5388 12.7787 33.319 10.3864 31.5211 10.6964ZM26.7904 1.32978C27.3656 1.13704 27.6847 1.85904 27.235 2.08543 26.6609 2.37403 26.4008 1.46031 26.7904 1.32978ZM26.9301 4.07194C27.2238 3.84556 30.2974 10.1447 30.1924 10.7005L23.8698 10.7005C24.395 8.30297 25.8716 6.24814 26.9301 4.07194ZM22.748 12.0262 31.3141 12.0262C30.3229 16.8079 23.6801 16.8415 22.748 12.0262Z" fill="#002968" transform="matrix(1.01063 0 0 1 462 401.008)"/><path d="M24.2012 3.02668C25.4015 2.45765 23.8004 1.18191 22.9795 2.05892 22.3779 2.70137 23.2579 3.47436 24.2012 3.02668Z" fill="#002968" transform="matrix(1.01063 0 0 1 462 401.008)"/></g></svg>