<svg width="26" height="39" xmlns="http://www.w3.org/2000/svg" xmlns:xlink="http://www.w3.org/1999/xlink" xml:space="preserve" overflow="hidden"><defs><clipPath id="clip0"><rect x="468" y="110" width="26" height="39"/></clipPath></defs><g clip-path="url(#clip0)" transform="translate(-468 -110)"><path d="M22.0482 0.681967C20.9668-0.53096 19.1669-0.030445 18.6676 1.44918L17.8432 7.07906C17.7652 7.23859 15.1263 8.78398 14.9205 8.78398L13.0329 8.78398C13.3824 7.53208 14.6684 6.78923 14.9509 5.52637 15.2773 4.06745 14.722 2.63166 13.4348 1.86689 10.3598 0.0414052 7.30192 2.55251 5.29986 4.76281 5.10014 4.76281 3.97733 1.54539 3.72403 1.10576 2.5452-0.949883-0.340984 0.0608899 0.0328806 2.48431 0.19363 3.52918 1.29208 6.25218 1.73658 7.35429 1.86445 7.67213 2.05808 7.92909 2.19691 8.23841 1.61845 9.114 0.723372 9.8252 0.472506 10.8969-0.179016 13.6783 1.79138 15.6572 4.01874 16.8848 5.26941 17.5741 6.35447 18.0746 7.79635 17.5521L7.79635 20.9011C7.79635 21.1726 8.30417 22.3527 8.4771 22.6571 8.9971 23.5754 9.9348 24.4534 10.5948 25.2852 10.6022 25.5835 8.9971 25.4118 9.01658 26.2484 9.03363 26.9962 9.77283 26.7477 10.2575 26.6491 10.8189 26.5346 12.217 26.3215 12.1829 25.6615 12.1585 25.178 9.77771 22.718 9.35878 21.896 8.93012 21.0557 8.8266 20.1935 8.89236 19.257L12.3631 19.257 15.7766 26.5602C16.0141 27.3091 15.5659 28.2225 14.7707 28.3625L7.91934 28.9994C7.71719 28.382 7.81583 26.4567 7.12412 26.3239 6.27897 26.1607 4.47541 26.3726 3.96637 27.1776 3.55232 27.8328 3.56084 30.6508 3.65583 31.4959 3.78492 32.6419 4.59232 33.347 5.76019 33.1119 6.98651 32.8647 7.51138 30.2318 7.87429 30.1125L12.6675 29.7313C12.0051 30.3427 11.4217 31.3388 10.78 31.9209 10.0615 32.5712 8.92646 32.8258 8.88749 34.057 8.8741 34.4856 9.77892 37.7846 10.0067 38.1756 10.5352 39.0792 11.7895 39.2582 12.6067 38.62 13.576 37.8614 13.2935 35.8629 13.7587 34.7791 15.3479 33.2532 17.1624 31.9088 18.759 30.4011 20.3506 28.8984 21.292 27.5856 20.1594 25.3436 19.0159 23.0785 16.9457 20.8438 15.7388 18.5617 15.4965 16.1212 15.9739 13.3093 15.7133 10.9151 15.6633 10.4645 15.4405 10.1759 15.3467 9.75944 15.572 9.76674 15.7681 9.68272 15.9629 9.58164 16.4598 9.32347 18.4911 8.1897 18.759 7.87307 19.2022 7.34576 19.1913 5.17077 19.3679 4.40112L21.1933 4.52169C20.9084 6.06342 21.2664 8.27129 20.1448 9.50248 19.6431 10.0541 17.0808 11.4826 16.9518 11.9162 16.7788 12.4983 17.2209 12.8234 17.7774 12.6164 18.1221 12.4873 20.7148 10.5717 21.0131 10.2478 21.2153 10.0286 21.5148 9.56824 21.6452 9.29667 22.1773 8.18482 22.4659 4.27934 22.5317 2.87644 22.5719 2.00206 22.6596 1.36881 22.0482 0.681967ZM6.79653 29.6412C6.71372 30.0443 5.4326 32.8331 4.93574 31.7992 4.84562 31.6128 4.81152 28.1068 4.89433 27.8632 5.05386 27.3871 6.02567 27.6306 6.40197 27.4467 6.62726 27.4881 6.86108 29.3197 6.79653 29.6412ZM13.2789 3.30389C14.202 3.96272 14.0071 5.53611 13.2764 6.28628 12.2243 7.36403 10.3123 6.98895 9.74604 5.61892 11.1879 5.48131 12.5713 4.52778 13.2789 3.30389ZM7.48946 4.15269C8.90211 2.91054 10.4852 2.05808 12.424 2.57443 12.0185 3.35382 11.1721 4.02482 10.3513 4.33658 9.11279 4.80543 7.76712 4.39625 8.74623 6.31185 9.32834 7.45293 10.786 8.1763 12.0586 8.05452 11.9624 8.18117 11.7347 8.72066 11.6689 8.75841 11.183 9.04215 9.44281 8.67682 8.88871 8.36141 8.55382 8.17143 6.01471 6.09265 5.98304 5.90511 5.9392 5.64328 7.22642 4.38408 7.48946 4.15269ZM1.58192 3.37574C0.168056 0.953536 2.66698 0.1437 3.16871 2.81555L1.58192 3.37574ZM7.67578 16.2747C6.95728 17.0942 5.2207 16.2503 4.47176 15.8241 1.81817 14.3128 0.0767213 11.6373 3.00309 9.27962 4.67026 10.6387 6.14501 12.2084 7.73424 13.6576 7.86454 13.9462 7.85724 16.0676 7.67578 16.2747ZM8.89236 18.161 8.89236 13.2289C6.98286 11.0101 4.19775 9.38923 2.74492 6.83307 2.69133 6.26436 2.00937 5.13059 1.96674 4.68244 1.93508 4.35728 3.36478 4.01752 3.65461 3.79101 3.95054 4.5022 4.28056 5.84178 4.75063 6.41171 5.3644 7.15457 8.39063 9.53658 9.28084 9.79719 10.7824 10.2356 12.48 9.73143 13.7989 10.0286 14.0278 10.0797 14.4942 10.4718 14.4942 10.6716L14.4942 18.161 8.89236 18.161ZM12.1013 37.384C11.9089 37.9405 11.2939 38.0745 10.987 37.5606 10.825 37.2914 10.1698 34.9131 10.1211 34.5307 10.0505 33.9815 10.2015 33.4115 10.8104 33.2837 11.205 33.1996 12.5092 34.4929 12.5494 34.7901 12.5701 34.9447 12.1792 37.1587 12.1013 37.384ZM19.0245 25.6274C19.6187 26.7051 19.7259 27.6087 18.9429 28.6365L13.2155 33.7464C12.9574 33.3592 11.7773 32.6394 11.9941 32.1681L14.3055 29.601C15.0958 29.4342 15.516 29.4488 16.1419 28.8813 17.0041 28.0983 17.1308 27.1289 16.7813 26.0438 16.1163 23.9833 14.6087 21.7718 13.8598 19.7101 13.805 19.5578 13.7282 19.43 13.7648 19.2583 14.2604 19.2558 14.7524 19.1292 15.0325 19.6333 16.2004 21.6537 17.9089 23.6058 19.0245 25.6274ZM21.3139 3.42689 19.6224 3.16993C19.62 2.46848 19.6504 0.991288 20.7123 1.163 21.8205 1.34201 21.3139 2.69986 21.3139 3.42689Z" fill="#002968" transform="matrix(1.04575 0 0 1 468.001 110)"/><path d="M24.8492 14.0899C24.7615 13.4518 23.9358 13.7209 23.8713 13.6564 23.7726 13.5565 24.0881 12.497 23.0822 12.6797 22.5207 12.782 22.7071 13.6028 22.6535 13.6564 22.595 13.7148 21.8485 13.4822 21.7 13.9864 21.4126 14.9643 22.5999 14.6964 22.6547 14.7512 22.6985 14.7963 22.4976 15.6658 23.1077 15.8302 23.9918 16.0701 23.8153 14.806 23.8713 14.7512 23.9407 14.6818 24.9734 14.9911 24.8492 14.0899Z" fill="#002968" transform="matrix(1.04575 0 0 1 468.001 110)"/><path d="M19.2753 17.0955C18.7285 17.6483 19.6614 18.4813 20.0985 17.9808 20.6319 17.3719 19.7551 16.6096 19.2753 17.0955Z" fill="#002968" transform="matrix(1.04575 0 0 1 468.001 110)"/></g></svg>